<svg xmlns="http://www.w3.org/2000/svg" width="1000" height="470" viewBox="0 0 1000 470" role="img"><rect width="1000" height="470" rx="14" fill="#100e15"/><rect x="28" y="24" width="944" height="200" rx="12" fill="#13111a" stroke="#2b2734" stroke-width="1"/><text x="48" y="50" fill="#ebe1eb" font-size="13" font-family="ui-monospace,'SFMono-Regular',Menlo,Consolas,'DejaVu Sans Mono',monospace" font-weight="bold" text-anchor="start" opacity="1">per-session context bar</text><text x="48" y="70" fill="#6b6478" font-size="11" font-family="ui-monospace,'SFMono-Regular',Menlo,Consolas,'DejaVu Sans Mono',monospace" font-weight="normal" text-anchor="start" opacity="1">pushed as pane tokens · nothing polls</text><rect x="48" y="78" width="250" height="128" rx="8" fill="#1b1724" stroke="#2b2734" stroke-width="1"/><text x="62" y="102" fill="#ebe1eb" font-size="12" font-family="ui-monospace,'SFMono-Regular',Menlo,Consolas,'DejaVu Sans Mono',monospace" font-weight="normal" text-anchor="start" opacity="1">claude code</text><text x="62" y="119" fill="#968ca0" font-size="11" font-family="ui-monospace,'SFMono-Regular',Menlo,Consolas,'DejaVu Sans Mono',monospace" font-weight="normal" text-anchor="start" opacity="1">statusLine payload</text><text x="62" y="136" fill="#6b6478" font-size="11" font-family="ui-monospace,'SFMono-Regular',Menlo,Consolas,'DejaVu Sans Mono',monospace" font-weight="normal" text-anchor="start" opacity="1"></text><text x="62" y="153" fill="#ebe1eb" font-size="12" font-family="ui-monospace,'SFMono-Regular',Menlo,Consolas,'DejaVu Sans Mono',monospace" font-weight="normal" text-anchor="start" opacity="1">codex TUI footer</text><text x="62" y="170" fill="#ebe1eb" font-size="12" font-family="ui-monospace,'SFMono-Regular',Menlo,Consolas,'DejaVu Sans Mono',monospace" font-weight="normal" text-anchor="start" opacity="1">opencode sqlite (read-only)</text><line x1="298" y1="142" x2="351" y2="142" stroke="#6b6478" stroke-width="1.2"/><path d="M358 142 l-7 -4 v8 z" fill="#6b6478"/><rect x="358" y="88" width="240" height="108" rx="8" fill="#1b1724" stroke="#2b2734" stroke-width="1"/><text x="372" y="112" fill="#00af50" font-size="12" font-family="ui-monospace,'SFMono-Regular',Menlo,Consolas,'DejaVu Sans Mono',monospace" font-weight="normal" text-anchor="start" opacity="1">claude-statusline.sh</text><text x="372" y="129" fill="#6b6478" font-size="11" font-family="ui-monospace,'SFMono-Regular',Menlo,Consolas,'DejaVu Sans Mono',monospace" font-weight="normal" text-anchor="start" opacity="1">wraps your status line</text><text x="372" y="146" fill="#00af50" font-size="12" font-family="ui-monospace,'SFMono-Regular',Menlo,Consolas,'DejaVu Sans Mono',monospace" font-weight="normal" text-anchor="start" opacity="1">pacer-panes.sh</text><text x="372" y="163" fill="#6b6478" font-size="11" font-family="ui-monospace,'SFMono-Regular',Menlo,Consolas,'DejaVu Sans Mono',monospace" font-weight="normal" text-anchor="start" opacity="1">on agent_status_changed</text><line x1="598" y1="142" x2="651" y2="142" stroke="#6b6478" stroke-width="1.2"/><path d="M658 142 l-7 -4 v8 z" fill="#6b6478"/><rect x="658" y="88" width="290" height="108" rx="8" fill="#1b1724" stroke="#2b2734" stroke-width="1"/><text x="672" y="112" fill="#ebe1eb" font-size="12" font-family="ui-monospace,'SFMono-Regular',Menlo,Consolas,'DejaVu Sans Mono',monospace" font-weight="normal" text-anchor="start" opacity="1">herdr pane report-metadata</text><text x="672" y="129" fill="#968ca0" font-size="11" font-family="ui-monospace,'SFMono-Regular',Menlo,Consolas,'DejaVu Sans Mono',monospace" font-weight="normal" text-anchor="start" opacity="1">$pacer_ctx_{ok,warn,hot,crit}</text><text x="672" y="146" fill="#6b6478" font-size="11" font-family="ui-monospace,'SFMono-Regular',Menlo,Consolas,'DejaVu Sans Mono',monospace" font-weight="normal" text-anchor="start" opacity="1"></text><text x="672" y="163" fill="#968ca0" font-size="11" font-family="ui-monospace,'SFMono-Regular',Menlo,Consolas,'DejaVu Sans Mono',monospace" font-weight="normal" text-anchor="start" opacity="1">→ the row under each agent</text><circle cx="886.1" cy="178.0" r="1.7" fill="#ffb055"/><circle cx="886.1" cy="182.6" r="1.7" fill="#ffb055"/><circle cx="890.6" cy="178.0" r="1.7" fill="#ffb055"/><circle cx="890.6" cy="182.6" r="1.7" fill="#ffb055"/><circle cx="894.1" cy="178.0" r="1.7" fill="#ffb055"/><circle cx="894.1" cy="182.6" r="1.7" fill="#ffb055"/><circle cx="898.6" cy="178.0" r="1.7" fill="#ffb055"/><circle cx="898.6" cy="182.6" r="1.7" fill="#ffb055"/><circle cx="902.1" cy="178.0" r="1.7" fill="#ffb055"/><circle cx="902.1" cy="182.6" r="1.7" fill="#ffb055"/><circle cx="906.6" cy="178.0" r="1.7" fill="#ffb055"/><circle cx="906.6" cy="182.6" r="1.7" fill="#ffb055"/><circle cx="910.1" cy="178.0" r="1.7" fill="#ffb055"/><circle cx="910.1" cy="182.6" r="1.7" fill="#ffb055"/><circle cx="918.1" cy="182.6" r="1.7" fill="#46424e"/><circle cx="922.6" cy="182.6" r="1.7" fill="#46424e"/><circle cx="926.1" cy="182.6" r="1.7" fill="#46424e"/><circle cx="930.6" cy="182.6" r="1.7" fill="#46424e"/><rect x="28" y="246" width="944" height="200" rx="12" fill="#13111a" stroke="#2b2734" stroke-width="1"/><text x="48" y="272" fill="#ebe1eb" font-size="13" font-family="ui-monospace,'SFMono-Regular',Menlo,Consolas,'DejaVu Sans Mono',monospace" font-weight="bold" text-anchor="start" opacity="1">global 5h / weekly popup</text><text x="48" y="292" fill="#6b6478" font-size="11" font-family="ui-monospace,'SFMono-Regular',Menlo,Consolas,'DejaVu Sans Mono',monospace" font-weight="normal" text-anchor="start" opacity="1">cached · refreshed on open and every 60s</text><rect x="48" y="300" width="250" height="128" rx="8" fill="#1b1724" stroke="#2b2734" stroke-width="1"/><text x="62" y="324" fill="#ebe1eb" font-size="12" font-family="ui-monospace,'SFMono-Regular',Menlo,Consolas,'DejaVu Sans Mono',monospace" font-weight="normal" text-anchor="start" opacity="1">api.anthropic.com</text><text x="62" y="341" fill="#968ca0" font-size="11" font-family="ui-monospace,'SFMono-Regular',Menlo,Consolas,'DejaVu Sans Mono',monospace" font-weight="normal" text-anchor="start" opacity="1">/api/oauth/usage</text><text x="62" y="358" fill="#6b6478" font-size="11" font-family="ui-monospace,'SFMono-Regular',Menlo,Consolas,'DejaVu Sans Mono',monospace" font-weight="normal" text-anchor="start" opacity="1"></text><text x="62" y="375" fill="#ebe1eb" font-size="12" font-family="ui-monospace,'SFMono-Regular',Menlo,Consolas,'DejaVu Sans Mono',monospace" font-weight="normal" text-anchor="start" opacity="1">codex app-server</text><text x="62" y="392" fill="#ebe1eb" font-size="12" font-family="ui-monospace,'SFMono-Regular',Menlo,Consolas,'DejaVu Sans Mono',monospace" font-weight="normal" text-anchor="start" opacity="1">omp usage --json</text><line x1="298" y1="364" x2="351" y2="364" stroke="#6b6478" stroke-width="1.2"/><path d="M358 364 l-7 -4 v8 z" fill="#6b6478"/><rect x="358" y="310" width="240" height="108" rx="8" fill="#1b1724" stroke="#2b2734" stroke-width="1"/><text x="372" y="334" fill="#00af50" font-size="12" font-family="ui-monospace,'SFMono-Regular',Menlo,Consolas,'DejaVu Sans Mono',monospace" font-weight="normal" text-anchor="start" opacity="1">collect.sh</text><text x="372" y="351" fill="#6b6478" font-size="11" font-family="ui-monospace,'SFMono-Regular',Menlo,Consolas,'DejaVu Sans Mono',monospace" font-weight="normal" text-anchor="start" opacity="1">one collector per agent</text><text x="372" y="368" fill="#00af50" font-size="12" font-family="ui-monospace,'SFMono-Regular',Menlo,Consolas,'DejaVu Sans Mono',monospace" font-weight="normal" text-anchor="start" opacity="1">state dir cache</text><text x="372" y="385" fill="#6b6478" font-size="11" font-family="ui-monospace,'SFMono-Regular',Menlo,Consolas,'DejaVu Sans Mono',monospace" font-weight="normal" text-anchor="start" opacity="1">+ back-off on failure</text><line x1="598" y1="364" x2="651" y2="364" stroke="#6b6478" stroke-width="1.2"/><path d="M658 364 l-7 -4 v8 z" fill="#6b6478"/><rect x="658" y="310" width="290" height="108" rx="8" fill="#1b1724" stroke="#2b2734" stroke-width="1"/><text x="672" y="334" fill="#ebe1eb" font-size="12" font-family="ui-monospace,'SFMono-Regular',Menlo,Consolas,'DejaVu Sans Mono',monospace" font-weight="normal" text-anchor="start" opacity="1">usage.sh</text><text x="672" y="351" fill="#968ca0" font-size="11" font-family="ui-monospace,'SFMono-Regular',Menlo,Consolas,'DejaVu Sans Mono',monospace" font-weight="normal" text-anchor="start" opacity="1">popup pane · ctrl+b u</text><text x="672" y="368" fill="#6b6478" font-size="11" font-family="ui-monospace,'SFMono-Regular',Menlo,Consolas,'DejaVu Sans Mono',monospace" font-weight="normal" text-anchor="start" opacity="1"></text><text x="672" y="385" fill="#968ca0" font-size="11" font-family="ui-monospace,'SFMono-Regular',Menlo,Consolas,'DejaVu Sans Mono',monospace" font-weight="normal" text-anchor="start" opacity="1">→ 5h over weekly, per agent</text><circle cx="886.1" cy="400.0" r="1.7" fill="#e6c800"/><circle cx="886.1" cy="404.6" r="1.7" fill="#e6c800"/><circle cx="890.6" cy="400.0" r="1.7" fill="#e6c800"/><circle cx="890.6" cy="404.6" r="1.7" fill="#e6c800"/><circle cx="894.1" cy="400.0" r="1.7" fill="#e6c800"/><circle cx="894.1" cy="404.6" r="1.7" fill="#e6c800"/><circle cx="898.6" cy="400.0" r="1.7" fill="#e6c800"/><circle cx="898.6" cy="404.6" r="1.7" fill="#e6c800"/><circle cx="902.1" cy="400.0" r="1.7" fill="#e6c800"/><circle cx="902.1" cy="404.6" r="1.7" fill="#e6c800"/><circle cx="906.6" cy="400.0" r="1.7" fill="#e6c800"/><circle cx="906.6" cy="404.6" r="1.7" fill="#e6c800"/><circle cx="910.1" cy="400.0" r="1.7" fill="#e6c800"/><circle cx="910.1" cy="404.6" r="1.7" fill="#e6c800"/><circle cx="914.6" cy="400.0" r="1.7" fill="#e6c800"/><circle cx="914.6" cy="404.6" r="1.7" fill="#e6c800"/><circle cx="918.1" cy="400.0" r="1.7" fill="#e6c800"/><circle cx="918.1" cy="404.6" r="1.7" fill="#e6c800"/><circle cx="922.6" cy="400.0" r="1.7" fill="#e6c800"/><circle cx="922.6" cy="404.6" r="1.7" fill="#e6c800"/><circle cx="926.1" cy="400.0" r="1.7" fill="#e6c800"/><circle cx="926.1" cy="404.6" r="1.7" fill="#e6c800"/></svg>
